<?xml version="1.0" encoding="UTF-8"?>
<svg id="Layer_2" data-name="Layer 2" xmlns="http://www.w3.org/2000/svg" viewBox="0 0 151.89 151.89">
  <defs>
    <style>
      .cls-1 {
        fill: #0583db;
      }

      .cls-2 {
        fill: #0ba8ff;
      }
    </style>
  </defs>
  <g id="Layer_1-2" data-name="Layer 1">
    <g id="Layer_1-2" data-name="Layer 1-2">
      <g>
        <path class="cls-1" d="M91.31,105.64h0l-19.29-29.15-14.99,9.68,8.4,12.5-27.34,39.86c-2.65,3.86-1.76,9.25,2.18,11.85,3.84,2.54,9.1,1.05,12.28-3.15l23.41-32.89,.48,.7h.02s22.32,32.76,22.32,32.76c2.1,3.11,8.08,5.94,12.9,2.56,4.21-2.95,4.63-8.27,1.84-12.35l-22.21-32.38h0Z"/>
        <g>
          <path class="cls-2" d="M147.23,99.33l-32.89-23.41,.7-.48v-.02s32.76-22.32,32.76-22.32c3.11-2.1,5.94-8.08,2.56-12.9-2.95-4.21-8.27-4.63-12.35-1.84l-32.38,22.21h0l-29.21,19.26,9.8,14.9,12.43-8.28,39.86,27.34c3.86,2.65,9.25,1.76,11.85-2.18,2.54-3.84,1.05-9.1-3.15-12.28h0Z"/>
          <path class="cls-1" d="M111.6,1.52c-3.84-2.54-9.1-1.05-12.28,3.15l-23.41,32.89-.48-.7h-.02S53.1,4.09,53.1,4.09c-2.1-3.11-8.08-5.94-12.9-2.56-4.21,2.95-4.63,8.27-1.84,12.35l22.21,32.38h0l19.53,29.07,14.9-9.8-8.56-12.3L113.78,13.37c2.65-3.86,1.76-9.25-2.18-11.85h0Z"/>
          <path class="cls-2" d="M65.9,57.23l-12.68,8.21L13.37,38.1c-3.86-2.65-9.25-1.76-11.85,2.18-2.54,3.84-1.05,9.1,3.15,12.28l32.89,23.41-.7,.48v.02S4.09,98.79,4.09,98.79c-3.11,2.1-5.94,8.08-2.56,12.9,2.95,4.21,8.27,4.63,12.35,1.84l32.38-22.21h0l29.63-19.29-9.99-14.78h0Z"/>
        </g>
      </g>
    </g>
  </g>
</svg>